# xmcd CD database file
#
# Track frame offsets:
#	150
#	38952
#	65287
#	98637
#	162180
#	206715
#
# Disc length: 3317 seconds
#
# Revision: 0
# Processed by: cddbd v1.5.1PL0 Copyright (c) Steve Scherf et al.
# Submitted via: CDex 1.51
#
DISCID=490cf306
DTITLE=Ben Webster - Ben Webster Stardust - Live At The Harlemse Jazz Club
DYEAR=1972
DGENRE=Jazz
TTITLE0=For All We Know
TTITLE1=Sunday
TTITLE2=How Long Has This Been Going On
TTITLE3=In A Mellotone
TTITLE4=Stardust
TTITLE5=Pardido
EXTD=YEAR: 1972
EXTT0=
EXTT1=
EXTT2=
EXTT3=
EXTT4=
EXTT5=
PLAYORDER=
